<?xml version="1.0" encoding="UTF-8"?>
<svg xmlns="http://www.w3.org/2000/svg" version="1.1" viewBox="0 0 302 92">
  <!-- Generator: Adobe Illustrator 29.6.0, SVG Export Plug-In . SVG Version: 2.1.1 Build 142)  -->
  <defs>
    <style>
      .st0 {
        fill: #023;
      }
    </style>
  </defs>
  <path class="st0" d="M75.8,22.7c-.4-1.6-1.4-3-2.9-4-7.5-5.6-16.4-9.8-26.1-12.4-.9-.2-1.9-.4-2.9-.4s-2,.1-2.9.4c-9.7,2.5-18.6,6.7-26.1,12.4-1.4,1.1-2.4,2.5-2.9,4-1.1,4.1-1.7,8.3-1.7,12.4v21.7c0,4.2.6,8.3,1.7,12.4.4,1.6,1.4,3,2.9,4,7.5,5.6,16.4,9.8,26.1,12.4.9.2,1.9.4,2.9.4s2-.1,2.9-.4c9.7-2.5,18.6-6.7,26.1-12.4,1.4-1.1,2.4-2.5,2.9-4,1.1-4.1,1.7-8.3,1.7-12.4v-21.7c0-4.2-.6-8.3-1.7-12.4M74.8,47.4c-.4,1.4-1.3,2.6-2.6,3.6-3.7,2.8-7.7,5.2-12.1,7.2-4.3,2-8.9,3.7-13.7,4.9-.8.2-1.7.3-2.6.3s-1.8-.1-2.6-.3c-4.8-1.2-9.4-2.9-13.7-4.9-4.3-2-8.4-4.5-12.1-7.2-1.3-1-2.2-2.2-2.6-3.6h0c-.3-.9-.3-1.9,0-2.8h0c.4-1.4,1.3-2.6,2.6-3.6,3.7-2.8,7.7-5.2,12.1-7.2,4.3-2,8.9-3.7,13.7-4.9.8-.2,1.7-.3,2.6-.3s1.8.1,2.6.3c4.8,1.2,9.4,2.9,13.7,4.9,4.3,2,8.4,4.5,12.1,7.2,1.3,1,2.2,2.2,2.6,3.6.3.9.3,1.9,0,2.8"/>
  <path class="st0" d="M106.5,34.4h-9.8c-1.6,0-2.5-.9-2.5-2.5v-6h34.3v6c0,1.6-.9,2.5-2.5,2.5h-9.8v31.7h-9.7v-31.7Z"/>
  <path class="st0" d="M153.6,57.4c2.4-1,4.1-2.2,6.1-3.8,1.5-1.2,2.3-2.7,2.4-4.5.3-2.5.3-3.6,0-6.1-.2-1.7-1-3.3-2.4-4.5-2-1.6-3.7-2.8-6.1-3.9-.7-.3-1.6-.5-2.6-.5s-1.8.2-2.6.5c-2.4,1-4.1,2.2-6.1,3.9-1.5,1.1-2.3,2.8-2.4,4.5-.3,2.5-.3,3.6,0,6.1.2,1.8.9,3.3,2.4,4.5,2,1.6,3.7,2.8,6.1,3.8.8.3,1.6.4,2.6.4s1.8-.1,2.6-.4M144.7,66c-2.8-1.1-6.2-2.8-8.6-4.6-3.5-2.6-5.7-6.6-6.2-10.9-.3-3.1-.3-5.8,0-8.9.5-4.3,2.7-8.3,6.2-10.9,2.4-1.9,5.7-3.6,8.6-4.7,2-.8,4.1-1.3,6.3-1.3s4.4.6,6.3,1.3c2.9,1.1,6.2,2.8,8.6,4.7,3.5,2.5,5.7,6.6,6.2,10.9.3,3.1.3,5.8,0,8.9-.5,4.3-2.7,8.3-6.2,10.9-2.4,1.8-5.7,3.5-8.6,4.6-2,.8-4.1,1.4-6.3,1.4s-4.3-.6-6.3-1.4"/>
  <path class="st0" d="M185.8,34.4h-9.8c-1.6,0-2.5-.9-2.5-2.5v-6h34.3v6c0,1.6-.9,2.5-2.5,2.5h-9.8v31.7h-9.7v-31.7Z"/>
  <path class="st0" d="M226.6,64.6l-10.7-13.8c-.8-1-1-1.8-1-3v-21.9h7c1.6,0,2.5.9,2.5,2.5v17.5c0,1.2.3,2.1,1,3.1l7.1,8.8,6.8-8.8c.7-1,1-1.9,1-3.1v-17.5c0-1.6.9-2.5,2.5-2.5h7v21.9c0,1.2-.3,2.1-1,3.1l-10.5,13.7c-.8,1-1.7,1.5-3,1.5h-5.7c-1.3,0-2.2-.4-3-1.5"/>
  <path class="st0" d="M256.1,53.1h7.5c1.7,0,2,.6,2.5,2.2.7,2.4,2.7,3.6,6.9,3.6h2.2c4.3,0,6.5-1.3,6.5-4v-.9c0-1.6-1.4-2.7-4.2-3.2l-9.4-1.7c-6.7-1.2-11.3-4.4-11.3-10.3v-2.3c0-7.4,6.6-11.6,14.5-11.6h4.5c9.5,0,14.8,5,14.8,13h-7.6c-1.5,0-1.9-.4-2.2-1.6-.6-2.2-2.2-3.3-5.5-3.3h-2.6c-3,0-6,.8-6,3.6v.9c0,1.4,1.3,2.5,3.9,2.9l9.9,1.8c6.6,1.2,11.1,4.2,11.1,10.4v2.4c0,8-7.1,12-15.6,12h-4.1c-9.3,0-15.9-4.2-15.9-13.9"/>
</svg>